<mxfile host="app.diagrams.net" modified="2024-02-03T01:50:19.561Z" agent="Mozilla/5.0 (Windows NT 10.0; Win64; x64) AppleWebKit/537.36 (KHTML, like Gecko) Chrome/120.0.0.0 Safari/537.36" version="23.1.1" etag="Wqd78qHHVsdjGfkealqY" type="github">
  <diagram name="Page-1" id="ymC8-8mMB7xktkjA2Alm">
    <mxGraphModel>
      <root>
        <mxCell id="0" />
        <mxCell id="1" parent="0" />
      </root>
    </mxGraphModel>
  </diagram>
</mxfile>
